<svg width="175" height="175" viewBox="0 -16.49 146.808 146.808" xmlns="http://www.w3.org/2000/svg"><g data-name="movie cinema"><g data-name="Group 1910"><g data-name="Group 1909"><rect data-name="Rectangle 1758" width="134.47" height="94.997" rx="7.862" transform="translate(8.571 18.835)" fill="#0ef"/></g></g><path data-name="Path 4476" d="M124.865 66.251a3.521 3.521 0 01-3.521 3.522h-89.92a3.521 3.521 0 01-3.521-3.522 3.521 3.521 0 013.521-3.521h89.92a3.521 3.521 0 013.521 3.521z" fill="#fff"/><path data-name="Path 4477" d="M124.865 88.854a3.52 3.52 0 01-3.521 3.521h-89.92a3.52 3.52 0 01-3.521-3.521 3.52 3.52 0 013.521-3.521h89.92a3.52 3.52 0 013.521 3.521z" fill="#fff"/><g data-name="Group 1912"><g data-name="Group 1911"><path data-name="Path 4478" d="M146.808 35.149a2.619 2.619 0 01-2.621 2.6H7.425a2.621 2.621 0 01-2.621-2.6V2.604a2.62 2.62 0 012.621-2.6h136.762a2.619 2.619 0 012.621 2.6z" fill="#fff"/></g></g><path data-name="Path 4479" d="M144.187 0H7.425a2.629 2.629 0 00-2.621 2.621v16.7h142v-16.7A2.627 2.627 0 00144.187 0z" fill="#fff"/><path data-name="Path 4480" d="M68.936 0H47.643l17.763 19.493-19.325 18.833h21.292l19.325-18.833zM7.425 0a2.639 2.639 0 00-2.621 2.643v33.04a2.64 2.64 0 002.621 2.643h18.674l19.324-18.833L27.665 0zm136.762 0h-15.96l17.762 19.493-19.324 18.833h17.523a2.639 2.639 0 002.621-2.643V2.643A2.638 2.638 0 00144.187 0zM87.28 0l17.762 19.493-19.324 18.833h21.292l19.324-18.833L108.573 0z" fill="#0ef"/><g data-name="Group 1914"><g data-name="Group 1913"><path data-name="Path 4481" d="M30.126 17.112a3.9 3.9 0 01-.608 4.21L12.085 39.388a7.092 7.092 0 01-4.441 1.886H2.621A2.628 2.628 0 010 38.654V6.987a2.627 2.627 0 012.621-2.619h18.234a4.764 4.764 0 013.834 2.322z" fill="#fff"/></g></g><path data-name="Path 4482" d="M17.252 21.292a4.8 4.8 0 11-4.8-4.8 4.8 4.8 0 014.8 4.8z" fill="#0ef"/></g></svg>