<svg width="800" height="800" viewBox="-12.66 0 156.313 156.313" xmlns="http://www.w3.org/2000/svg" fill="#444141" stroke="#444141"><path data-name="movie film" d="M128.198 81.034a9.554 9.554 0 00-1.9-1.466 21.028 21.028 0 01-3.2-35.409c.1-.091.2-.176.3-.271a9.571 9.571 0 000-13.533c-.1-.1-.2-.191-.3-.285l.005-.008L94.16 1.117a3.842 3.842 0 00-5.416 0L1.116 88.745a3.846 3.846 0 000 5.418l61.036 61.032a3.842 3.842 0 005.416 0l60.7-60.7h0a9.565 9.565 0 00-.07-13.461zm-48.4-62.469l8.939-8.944a3.245 3.245 0 014.585 0l8.71 8.711a3.244 3.244 0 010 4.586l-8.939 8.94a3.245 3.245 0 01-4.586 0l-8.709-8.711a3.238 3.238 0 01-.003-4.582zM56.157 42.201l8.941-8.939a3.244 3.244 0 014.586 0l8.709 8.712a3.239 3.239 0 010 4.584l-8.938 8.939a3.245 3.245 0 01-4.587 0l-8.709-8.71a3.242 3.242 0 01-.005-4.586zM31.116 93.836l-8.941 8.939a3.242 3.242 0 01-4.583 0l-8.71-8.71a3.239 3.239 0 010-4.584l8.94-8.941a3.239 3.239 0 014.584 0l8.712 8.709a3.247 3.247 0 01-.005 4.587zm10.115-14.7l-8.711-8.71a3.241 3.241 0 010-4.584l8.94-8.94a3.24 3.24 0 014.583 0l8.712 8.709a3.242 3.242 0 010 4.586l-8.94 8.939a3.24 3.24 0 01-4.587-.001zm34.542 59.359l-8.939 8.939a3.242 3.242 0 01-4.585 0l-8.71-8.71a3.245 3.245 0 010-4.586l8.939-8.94a3.247 3.247 0 014.586 0l8.709 8.71a3.243 3.243 0 010 4.587zm23.64-23.64l-8.94 8.94a3.239 3.239 0 01-4.585 0l-8.71-8.711a3.238 3.238 0 010-4.583l8.939-8.94a3.239 3.239 0 014.585 0l8.711 8.71a3.241 3.241 0 010 4.586zm23.639-23.638l-8.94 8.938a3.24 3.24 0 01-4.585 0l-8.71-8.711a3.24 3.24 0 010-4.584l8.94-8.939a3.242 3.242 0 014.585 0l8.711 8.709a3.245 3.245 0 01-.001 4.589z" fill="#29e6ff"/></svg>